<svg height="1342" width="720" xmlns="http://www.w3.org/2000/svg">
<rect height="1342" fill="#555" width="720"></rect>
<text fill="#7f7" font-family="Courier New" font-size="12" xml:space="preserve">
<tspan x="10" y="26">16 megabytes installed</tspan>
<tspan x="10" y="42"></tspan>
<tspan x="10" y="58">node_modules</tspan>
<tspan x="10" y="74">└─┬ astrum@1.9.3 </tspan>
<tspan x="10" y="90">  ├─┬ chalk@1.1.3 </tspan>
<tspan x="10" y="106">  │ ├── ansi-styles@2.2.1 </tspan>
<tspan x="10" y="122">  │ ├── escape-string-regexp@1.0.5 </tspan>
<tspan x="10" y="138">  │ ├─┬ has-ansi@2.0.0 </tspan>
<tspan x="10" y="154">  │ │ └── ansi-regex@2.1.1 </tspan>
<tspan x="10" y="170">  │ ├── strip-ansi@3.0.1 </tspan>
<tspan x="10" y="186">  │ └── supports-color@2.0.0 </tspan>
<tspan x="10" y="202">  ├─┬ commander@2.9.0 </tspan>
<tspan x="10" y="218">  │ └── graceful-readlink@1.0.1 </tspan>
<tspan x="10" y="234">  ├─┬ cwd@0.10.0 </tspan>
<tspan x="10" y="250">  │ ├─┬ find-pkg@0.1.2 </tspan>
<tspan x="10" y="266">  │ │ └─┬ find-file-up@0.1.3 </tspan>
<tspan x="10" y="282">  │ │   └─┬ resolve-dir@0.1.1 </tspan>
<tspan x="10" y="298">  │ │     └─┬ expand-tilde@1.2.2 </tspan>
<tspan x="10" y="314">  │ │       └── os-homedir@1.0.2 </tspan>
<tspan x="10" y="330">  │ └── fs-exists-sync@0.1.0 </tspan>
<tspan x="10" y="346">  ├─┬ fs-extra@0.28.0 </tspan>
<tspan x="10" y="362">  │ ├── graceful-fs@4.1.11 </tspan>
<tspan x="10" y="378">  │ ├── jsonfile@2.4.0 </tspan>
<tspan x="10" y="394">  │ ├── klaw@1.3.1 </tspan>
<tspan x="10" y="410">  │ ├── path-is-absolute@1.0.1 </tspan>
<tspan x="10" y="426">  │ └─┬ rimraf@2.6.1 </tspan>
<tspan x="10" y="442">  │   └─┬ glob@7.1.1 </tspan>
<tspan x="10" y="458">  │     ├── fs.realpath@1.0.0 </tspan>
<tspan x="10" y="474">  │     ├─┬ inflight@1.0.6 </tspan>
<tspan x="10" y="490">  │     │ └── wrappy@1.0.2 </tspan>
<tspan x="10" y="506">  │     ├── inherits@2.0.3 </tspan>
<tspan x="10" y="522">  │     ├─┬ minimatch@3.0.3 </tspan>
<tspan x="10" y="538">  │     │ └─┬ brace-expansion@1.1.7 </tspan>
<tspan x="10" y="554">  │     │   ├── balanced-match@0.4.2 </tspan>
<tspan x="10" y="570">  │     │   └── concat-map@0.0.1 </tspan>
<tspan x="10" y="586">  │     └── once@1.4.0 </tspan>
<tspan x="10" y="602">  ├─┬ global-modules@0.2.3 </tspan>
<tspan x="10" y="618">  │ └─┬ global-prefix@0.1.5 </tspan>
<tspan x="10" y="634">  │   ├─┬ homedir-polyfill@1.0.1 </tspan>
<tspan x="10" y="650">  │   │ └── parse-passwd@1.0.0 </tspan>
<tspan x="10" y="666">  │   ├── ini@1.3.4 </tspan>
<tspan x="10" y="682">  │   └─┬ which@1.2.14 </tspan>
<tspan x="10" y="698">  │     └── isexe@2.0.0 </tspan>
<tspan x="10" y="714">  ├─┬ inquirer@1.2.3 </tspan>
<tspan x="10" y="730">  │ ├── ansi-escapes@1.4.0 </tspan>
<tspan x="10" y="746">  │ ├─┬ cli-cursor@1.0.2 </tspan>
<tspan x="10" y="762">  │ │ └─┬ restore-cursor@1.0.1 </tspan>
<tspan x="10" y="778">  │ │   ├── exit-hook@1.1.1 </tspan>
<tspan x="10" y="794">  │ │   └── onetime@1.1.0 </tspan>
<tspan x="10" y="810">  │ ├── cli-width@2.1.0 </tspan>
<tspan x="10" y="826">  │ ├─┬ external-editor@1.1.1 </tspan>
<tspan x="10" y="842">  │ │ ├── extend@3.0.0 </tspan>
<tspan x="10" y="858">  │ │ ├─┬ spawn-sync@1.0.15 </tspan>
<tspan x="10" y="874">  │ │ │ ├─┬ concat-stream@1.6.0 </tspan>
<tspan x="10" y="890">  │ │ │ │ ├─┬ readable-stream@2.2.9 </tspan>
<tspan x="10" y="906">  │ │ │ │ │ ├── buffer-shims@1.0.0 </tspan>
<tspan x="10" y="922">  │ │ │ │ │ ├── core-util-is@1.0.2 </tspan>
<tspan x="10" y="938">  │ │ │ │ │ ├── isarray@1.0.0 </tspan>
<tspan x="10" y="954">  │ │ │ │ │ ├── process-nextick-args@1.0.7 </tspan>
<tspan x="10" y="970">  │ │ │ │ │ ├── string_decoder@1.0.0 </tspan>
<tspan x="10" y="986">  │ │ │ │ │ └── util-deprecate@1.0.2 </tspan>
<tspan x="10" y="1002">  │ │ │ │ └── typedarray@0.0.6 </tspan>
<tspan x="10" y="1018">  │ │ │ └── os-shim@0.1.3 </tspan>
<tspan x="10" y="1034">  │ │ └─┬ tmp@0.0.29 </tspan>
<tspan x="10" y="1050">  │ │   └── os-tmpdir@1.0.2 </tspan>
<tspan x="10" y="1066">  │ ├─┬ figures@1.7.0 </tspan>
<tspan x="10" y="1082">  │ │ └── object-assign@4.1.1 </tspan>
<tspan x="10" y="1098">  │ ├── lodash@4.17.4 </tspan>
<tspan x="10" y="1114">  │ ├── mute-stream@0.0.6 </tspan>
<tspan x="10" y="1130">  │ ├─┬ pinkie-promise@2.0.1 </tspan>
<tspan x="10" y="1146">  │ │ └── pinkie@2.0.4 </tspan>
<tspan x="10" y="1162">  │ ├─┬ run-async@2.3.0 </tspan>
<tspan x="10" y="1178">  │ │ └── is-promise@2.1.0 </tspan>
<tspan x="10" y="1194">  │ ├── rx@4.1.0 </tspan>
<tspan x="10" y="1210">  │ ├─┬ string-width@1.0.2 </tspan>
<tspan x="10" y="1226">  │ │ ├── code-point-at@1.1.0 </tspan>
<tspan x="10" y="1242">  │ │ └─┬ is-fullwidth-code-point@1.0.0 </tspan>
<tspan x="10" y="1258">  │ │   └── number-is-nan@1.0.1 </tspan>
<tspan x="10" y="1274">  │ └── through@2.3.8 </tspan>
<tspan x="10" y="1290">  ├── is-windows@0.2.0 </tspan>
<tspan x="10" y="1306">  └─┬ mkdirp@0.5.1 </tspan>
<tspan x="10" y="1322">    └── minimist@0.0.8</tspan>
</text>
</svg>
